<svg t="1774709806966" class="icon" viewBox="0 0 1024 1024" version="1.1" xmlns="http://www.w3.org/2000/svg" p-id="5369"
     width="128" height="128">
    <path d="M161.28 805.888v146.944c0 35.328-28.672 64-64 64S33.28 988.16 33.28 952.832v-146.944c0-35.328 28.672-64 64-64s64 28.672 64 64z m351.744-151.552c-35.328 0-64 28.672-64 64V952.32c0 35.328 28.672 64 64 64s64-28.672 64-64v-233.984c0-35.328-28.672-64-64-64z m415.232-95.232c-35.328 0-64 28.672-64 64v329.728c0 35.328 28.672 64 64 64s64-28.672 64-64v-329.728c0-35.328-28.672-64-64-64zM1012.736 66.56c0-1.024-0.512-1.536-0.512-2.56s-0.512-2.56-0.512-3.584c0-1.024-0.512-2.048-0.512-3.072 0-1.024-0.512-2.048-1.024-3.072-0.512-1.024-0.512-2.048-1.024-3.072-0.512-1.024-0.512-2.048-1.024-3.072-0.512-1.024-1.024-2.048-1.024-2.56l-1.536-3.072c-0.512-1.024-1.024-1.536-1.536-2.56l-1.536-3.072c-0.512-1.024-1.536-1.536-2.048-2.56-0.512-1.024-1.024-1.536-1.536-2.56-1.024-1.536-2.56-3.072-4.096-4.608-1.536-1.536-3.072-2.56-4.608-4.096-1.024-0.512-1.536-1.024-2.56-2.048-1.024-0.512-1.536-1.536-2.56-2.048l-3.072-1.536c-1.024-0.512-1.536-1.024-2.56-1.536l-3.072-1.536c-1.024-0.512-1.536-1.024-2.56-1.024-1.024-0.512-2.048-0.512-3.072-1.024-1.024-0.512-2.048-0.512-3.072-1.024-1.024-0.512-2.048-0.512-3.072-1.024-1.024 0-2.048-0.512-3.072-0.512-1.024 0-2.56-0.512-3.584-0.512-1.024 0-1.536-0.512-2.56-0.512-2.048 0-4.096-0.512-6.144-0.512h-301.056c-35.328 0-64 28.672-64 64s28.672 64 64 64h146.944l-265.216 265.216L388.096 261.12c-11.776-11.776-28.16-18.944-45.056-18.944-16.896 0-33.28 6.656-45.056 18.944L31.232 527.872c-25.088 25.088-25.088 65.536 0 90.624 12.288 12.288 28.672 18.944 45.056 18.944s32.768-6.144 45.056-18.944L343.04 396.8 483.84 537.6c11.776 11.776 28.16 18.944 45.056 18.944s33.28-6.656 45.056-18.944l310.784-310.784V373.76c0 35.328 28.672 64 64 64s64-28.672 64-64V72.704 66.56z"
          fill="#148a1c" p-id="5370"></path>
</svg>